2.8Hzlow3min_grf.mot
version=1
nRows=17
nColumns 19
inDegrees=yes
endheader
time	1_ground_force_vx	1_ground_force_vy	1_ground_force_vz	1_ground_force_px	1_ground_force_py	1_ground_force_pz	1_ground_torque_x	1_ground_torque_y	1_ground_torque_z	2_ground_force_vx	2_ground_force_vy	2_ground_force_vz	2_ground_force_px	2_ground_force_py	2_ground_force_pz	2_ground_torque_x	2_ground_torque_y	2_ground_torque_z
            2.502500	            0.368224	           -0.002485	            0.595217	           -0.233013	            0.005581	           -0.255695	            0.068489	           -0.046014	            0.015271	            0.330505	           -0.734572	           -0.237408	           -0.232311	            0.006130	           -0.833667	           -0.112685	           -0.018976	           -0.094271
            2.503000	            0.413300	            1.080101	            0.370461	           -0.233013	            0.005581	           -0.255695	            0.002437	           -0.027446	           -0.001368	            0.327058	            0.187174	           -0.515692	           -0.232311	            0.006130	           -0.833667	           -0.056346	           -0.018638	           -0.131995
            2.503500	            0.688781	            1.259633	            0.553975	           -0.233013	            0.005581	           -0.255695	            0.088201	           -0.017731	           -0.065009	            0.283634	           -0.734574	           -0.284316	           -0.232311	            0.006130	           -0.833667	           -0.131334	           -0.056855	           -0.094397
            2.504000	            0.275738	            1.260340	            0.371575	           -0.233013	            0.005581	           -0.255695	            0.133664	           -0.027403	           -0.026362	            0.049926	           -0.918564	           -0.566442	           -0.232311	            0.006130	           -0.833667	           -0.093969	            0.009181	           -0.018777
            2.504500	            0.321713	            0.539286	            0.368370	           -0.233013	            0.005581	           -0.255695	            0.002738	           -0.082868	           -0.024294	            0.051338	           -1.287530	           -0.380044	           -0.232311	            0.006130	           -0.833667	           -0.093883	           -0.019043	           -0.056578
            2.505000	            0.138991	            0.718337	            0.644733	           -0.233013	            0.005581	           -0.255695	            0.047089	           -0.055043	           -0.069707	           -0.234352	           -0.000009	           -0.234541	           -0.232311	            0.006130	           -0.833667	           -0.131394	           -0.038017	           -0.075480
            2.505500	            0.367994	            1.259375	            0.600627	           -0.233013	            0.005581	           -0.255695	            0.048761	           -0.018046	           -0.041000	            0.280209	            0.187004	           -0.515672	           -0.232311	            0.006130	           -0.833667	           -0.056288	           -0.019109	           -0.000043
            2.506000	            0.550910	            1.260197	            0.416749	           -0.233013	            0.005581	           -0.255695	            0.000413	            0.046485	            0.023610	            0.375238	           -0.180954	           -0.517026	           -0.232311	            0.006130	           -0.833667	           -0.018596	           -0.065833	           -0.113329
            2.506500	            0.642955	            0.538758	            0.505141	           -0.233013	            0.005581	           -0.255695	            0.071973	            0.037462	           -0.010267	            0.514561	            0.187013	           -0.281131	           -0.232311	            0.006130	           -0.833667	            0.018846	           -0.027954	           -0.094360
            2.507000	            0.780487	           -0.722682	            0.407677	           -0.233013	            0.005581	           -0.255695	            0.001776	           -0.045924	            0.051853	            0.279421	            0.372157	           -0.796583	           -0.232311	            0.006130	           -0.833667	           -0.018716	           -0.028157	           -0.075494
            2.507500	            0.413675	            0.899245	            0.507256	           -0.233013	            0.005581	           -0.255695	            0.146875	           -0.092117	           -0.001997	            0.045315	            0.370140	           -0.467987	           -0.232311	            0.006130	           -0.833667	           -0.075140	           -0.009455	           -0.075403
            2.508000	            0.504941	           -0.541683	            0.225709	           -0.233013	            0.005581	           -0.255695	            0.084408	           -0.092017	           -0.016679	           -0.092597	           -0.366794	           -0.517483	           -0.232311	            0.006130	           -0.833667	           -0.037425	           -0.047197	           -0.056703
            2.508500	            0.597960	           -0.363759	            0.776526	           -0.233013	            0.005581	           -0.255695	            0.023191	           -0.036345	           -0.049982	           -0.138741	           -0.551446	           -0.424264	           -0.232311	            0.006130	           -0.833667	            0.000103	           -0.037542	           -0.075536
            2.509000	            0.047536	           -0.543541	            0.639550	           -0.233013	            0.005581	           -0.255695	            0.029347	           -0.027761	            0.020580	            0.141153	           -0.183139	           -0.141501	           -0.232311	            0.006130	           -0.833667	            0.019059	           -0.084738	           -0.075712
            2.509500	            0.459502	            0.358654	            0.458967	           -0.233013	            0.005581	           -0.255695	           -0.019869	           -0.036509	           -0.036967	            0.376026	           -0.366107	           -0.236114	           -0.232311	            0.006130	           -0.833667	           -0.093721	           -0.066239	           -0.075597
            2.510000	            0.276262	           -0.362444	            0.456331	           -0.233013	            0.005581	           -0.255695	           -0.019387	            0.009544	           -0.025766	            0.282949	           -0.550258	           -0.330587	           -0.232311	            0.006130	           -0.833667	           -0.074926	           -0.075422	           -0.132189
            2.510500	            0.689059	            0.358108	            0.595966	           -0.233013	            0.005581	           -0.255695	            0.124411	            0.009927	           -0.046151	            0.235414	           -0.366112	           -0.376839	           -0.232311	            0.006130	           -0.833667	           -0.094045	            0.018970	           -0.112994
